<svg xmlns="http://www.w3.org/2000/svg" xmlns:xlink="http://www.w3.org/1999/xlink" width="500" zoomAndPan="magnify" viewBox="0 0 375 374.999991" height="500" preserveAspectRatio="xMidYMid meet" version="1.0"><defs><clipPath id="fdf32d5eff"><path d="M 46.304688 46.304688 L 329.054688 46.304688 L 329.054688 329.054688 L 46.304688 329.054688 Z M 46.304688 46.304688 " clip-rule="nonzero"/></clipPath><clipPath id="d4548e0bfe"><path d="M 112.5 112.5 L 262.5 112.5 L 262.5 262.5 L 112.5 262.5 Z M 112.5 112.5 " clip-rule="nonzero"/></clipPath></defs><g clip-path="url(#fdf32d5eff)"><path fill="#ffffff" d="M 329.050781 187.679688 C 329.050781 189.992188 328.996094 192.304688 328.882812 194.617188 C 328.769531 196.925781 328.597656 199.234375 328.371094 201.535156 C 328.144531 203.839844 327.859375 206.132812 327.523438 208.421875 C 327.183594 210.710938 326.785156 212.988281 326.335938 215.257812 C 325.882812 217.527344 325.378906 219.785156 324.816406 222.03125 C 324.253906 224.273438 323.636719 226.503906 322.964844 228.71875 C 322.292969 230.929688 321.566406 233.128906 320.789062 235.304688 C 320.007812 237.484375 319.175781 239.640625 318.289062 241.78125 C 317.40625 243.917969 316.46875 246.03125 315.476562 248.125 C 314.488281 250.214844 313.449219 252.28125 312.359375 254.320312 C 311.269531 256.363281 310.128906 258.375 308.9375 260.359375 C 307.75 262.34375 306.511719 264.296875 305.226562 266.222656 C 303.941406 268.144531 302.609375 270.035156 301.230469 271.894531 C 299.851562 273.753906 298.429688 275.578125 296.960938 277.363281 C 295.492188 279.152344 293.984375 280.90625 292.429688 282.617188 C 290.875 284.332031 289.28125 286.007812 287.644531 287.644531 C 286.007812 289.28125 284.332031 290.875 282.617188 292.429688 C 280.90625 293.984375 279.152344 295.492188 277.363281 296.960938 C 275.578125 298.429688 273.753906 299.851562 271.894531 301.230469 C 270.035156 302.609375 268.144531 303.941406 266.222656 305.226562 C 264.296875 306.511719 262.34375 307.75 260.359375 308.9375 C 258.375 310.128906 256.363281 311.269531 254.320312 312.359375 C 252.28125 313.449219 250.214844 314.488281 248.125 315.476562 C 246.03125 316.46875 243.917969 317.40625 241.78125 318.289062 C 239.640625 319.175781 237.484375 320.007812 235.304688 320.789062 C 233.128906 321.566406 230.929688 322.292969 228.71875 322.964844 C 226.503906 323.636719 224.273438 324.253906 222.03125 324.816406 C 219.785156 325.378906 217.527344 325.882812 215.257812 326.335938 C 212.988281 326.785156 210.710938 327.183594 208.421875 327.523438 C 206.132812 327.859375 203.839844 328.144531 201.535156 328.371094 C 199.234375 328.597656 196.925781 328.769531 194.617188 328.882812 C 192.304688 328.996094 189.992188 329.050781 187.679688 329.050781 C 185.363281 329.050781 183.054688 328.996094 180.742188 328.882812 C 178.429688 328.769531 176.125 328.597656 173.820312 328.371094 C 171.519531 328.144531 169.222656 327.859375 166.933594 327.523438 C 164.644531 327.183594 162.367188 326.785156 160.097656 326.335938 C 157.828125 325.882812 155.574219 325.378906 153.328125 324.816406 C 151.082031 324.253906 148.855469 323.636719 146.640625 322.964844 C 144.425781 322.292969 142.230469 321.566406 140.050781 320.789062 C 137.875 320.007812 135.714844 319.175781 133.578125 318.289062 C 131.441406 317.40625 129.324219 316.46875 127.234375 315.476562 C 125.140625 314.488281 123.078125 313.449219 121.035156 312.359375 C 118.996094 311.269531 116.984375 310.128906 115 308.9375 C 113.015625 307.75 111.058594 306.511719 109.136719 305.226562 C 107.210938 303.941406 105.320312 302.609375 103.464844 301.230469 C 101.605469 299.851562 99.78125 298.429688 97.992188 296.960938 C 96.203125 295.492188 94.453125 293.984375 92.738281 292.429688 C 91.023438 290.875 89.347656 289.28125 87.714844 287.644531 C 86.078125 286.007812 84.480469 284.332031 82.929688 282.617188 C 81.375 280.90625 79.863281 279.152344 78.394531 277.363281 C 76.929688 275.578125 75.503906 273.753906 74.128906 271.894531 C 72.75 270.035156 71.417969 268.144531 70.132812 266.222656 C 68.847656 264.296875 67.609375 262.34375 66.417969 260.359375 C 65.230469 258.375 64.089844 256.363281 63 254.320312 C 61.910156 252.28125 60.867188 250.214844 59.878906 248.125 C 58.890625 246.03125 57.953125 243.917969 57.066406 241.78125 C 56.183594 239.640625 55.347656 237.484375 54.570312 235.304688 C 53.789062 233.128906 53.066406 230.929688 52.394531 228.71875 C 51.722656 226.503906 51.105469 224.273438 50.542969 222.03125 C 49.980469 219.785156 49.472656 217.527344 49.023438 215.257812 C 48.570312 212.988281 48.175781 210.710938 47.835938 208.421875 C 47.496094 206.132812 47.214844 203.839844 46.988281 201.535156 C 46.761719 199.234375 46.589844 196.925781 46.476562 194.617188 C 46.363281 192.304688 46.304688 189.992188 46.304688 187.679688 C 46.304688 185.363281 46.363281 183.054688 46.476562 180.742188 C 46.589844 178.429688 46.761719 176.125 46.988281 173.820312 C 47.214844 171.519531 47.496094 169.222656 47.835938 166.933594 C 48.175781 164.644531 48.570312 162.367188 49.023438 160.097656 C 49.472656 157.828125 49.980469 155.574219 50.542969 153.328125 C 51.105469 151.082031 51.722656 148.855469 52.394531 146.640625 C 53.066406 144.425781 53.789062 142.230469 54.570312 140.050781 C 55.347656 137.875 56.183594 135.714844 57.066406 133.578125 C 57.953125 131.441406 58.890625 129.324219 59.878906 127.234375 C 60.867188 125.140625 61.910156 123.078125 63 121.035156 C 64.089844 118.996094 65.230469 116.984375 66.417969 115 C 67.609375 113.015625 68.847656 111.058594 70.132812 109.136719 C 71.417969 107.210938 72.75 105.320312 74.128906 103.464844 C 75.503906 101.605469 76.929688 99.78125 78.394531 97.992188 C 79.863281 96.203125 81.375 94.453125 82.929688 92.738281 C 84.480469 91.023438 86.078125 89.347656 87.714844 87.714844 C 89.347656 86.078125 91.023438 84.480469 92.738281 82.929688 C 94.453125 81.375 96.203125 79.863281 97.992188 78.394531 C 99.78125 76.929688 101.605469 75.503906 103.464844 74.128906 C 105.320312 72.75 107.210938 71.417969 109.136719 70.132812 C 111.058594 68.847656 113.015625 67.609375 115 66.417969 C 116.984375 65.230469 118.996094 64.089844 121.035156 63 C 123.078125 61.910156 125.140625 60.867188 127.234375 59.878906 C 129.324219 58.890625 131.441406 57.953125 133.578125 57.066406 C 135.714844 56.183594 137.875 55.347656 140.050781 54.570312 C 142.230469 53.789062 144.425781 53.066406 146.640625 52.394531 C 148.855469 51.722656 151.082031 51.105469 153.328125 50.542969 C 155.574219 49.980469 157.828125 49.472656 160.097656 49.023438 C 162.367188 48.570312 164.644531 48.175781 166.933594 47.835938 C 169.222656 47.496094 171.519531 47.214844 173.820312 46.988281 C 176.125 46.761719 178.429688 46.589844 180.742188 46.476562 C 183.054688 46.363281 185.363281 46.304688 187.679688 46.304688 C 189.992188 46.304688 192.304688 46.363281 194.617188 46.476562 C 196.925781 46.589844 199.234375 46.761719 201.535156 46.988281 C 203.839844 47.214844 206.132812 47.496094 208.421875 47.835938 C 210.710938 48.175781 212.988281 48.570312 215.257812 49.023438 C 217.527344 49.472656 219.785156 49.980469 222.03125 50.542969 C 224.273438 51.105469 226.503906 51.722656 228.71875 52.394531 C 230.929688 53.066406 233.128906 53.789062 235.304688 54.570312 C 237.484375 55.347656 239.640625 56.183594 241.78125 57.066406 C 243.917969 57.953125 246.03125 58.890625 248.125 59.878906 C 250.214844 60.867188 252.28125 61.910156 254.320312 63 C 256.363281 64.089844 258.375 65.230469 260.359375 66.417969 C 262.34375 67.609375 264.296875 68.847656 266.222656 70.132812 C 268.144531 71.417969 270.035156 72.75 271.894531 74.128906 C 273.753906 75.503906 275.578125 76.929688 277.363281 78.394531 C 279.152344 79.863281 280.90625 81.375 282.617188 82.929688 C 284.332031 84.480469 286.007812 86.078125 287.644531 87.714844 C 289.28125 89.347656 290.875 91.023438 292.429688 92.738281 C 293.984375 94.453125 295.492188 96.203125 296.960938 97.992188 C 298.429688 99.78125 299.851562 101.605469 301.230469 103.464844 C 302.609375 105.320312 303.941406 107.210938 305.226562 109.136719 C 306.511719 111.058594 307.75 113.015625 308.9375 115 C 310.128906 116.984375 311.269531 118.996094 312.359375 121.035156 C 313.449219 123.078125 314.488281 125.140625 315.476562 127.234375 C 316.46875 129.324219 317.40625 131.441406 318.289062 133.578125 C 319.175781 135.714844 320.007812 137.875 320.789062 140.050781 C 321.566406 142.230469 322.292969 144.425781 322.964844 146.640625 C 323.636719 148.855469 324.253906 151.082031 324.816406 153.328125 C 325.378906 155.574219 325.882812 157.828125 326.335938 160.097656 C 326.785156 162.367188 327.183594 164.644531 327.523438 166.933594 C 327.859375 169.222656 328.144531 171.519531 328.371094 173.820312 C 328.597656 176.125 328.769531 178.429688 328.882812 180.742188 C 328.996094 183.054688 329.050781 185.363281 329.050781 187.679688 Z M 329.050781 187.679688 " fill-opacity="1" fill-rule="nonzero"/></g><g clip-path="url(#d4548e0bfe)"><path fill="#ffffff" d="M 262.496094 187.5 C 262.496094 188.726562 262.46875 189.953125 262.40625 191.179688 C 262.347656 192.40625 262.257812 193.628906 262.136719 194.851562 C 262.015625 196.070312 261.867188 197.289062 261.6875 198.503906 C 261.507812 199.71875 261.296875 200.925781 261.058594 202.128906 C 260.816406 203.335938 260.546875 204.53125 260.25 205.722656 C 259.953125 206.914062 259.625 208.09375 259.269531 209.269531 C 258.910156 210.445312 258.527344 211.609375 258.113281 212.765625 C 257.699219 213.921875 257.257812 215.066406 256.789062 216.199219 C 256.320312 217.332031 255.820312 218.457031 255.296875 219.566406 C 254.773438 220.675781 254.21875 221.769531 253.640625 222.851562 C 253.0625 223.9375 252.457031 225.003906 251.828125 226.054688 C 251.195312 227.109375 250.539062 228.144531 249.859375 229.164062 C 249.175781 230.1875 248.46875 231.191406 247.738281 232.175781 C 247.007812 233.160156 246.253906 234.128906 245.472656 235.078125 C 244.695312 236.027344 243.894531 236.957031 243.070312 237.863281 C 242.246094 238.773438 241.398438 239.664062 240.53125 240.53125 C 239.664062 241.398438 238.773438 242.246094 237.863281 243.070312 C 236.957031 243.894531 236.027344 244.695312 235.078125 245.472656 C 234.128906 246.253906 233.160156 247.007812 232.175781 247.738281 C 231.191406 248.46875 230.1875 249.175781 229.164062 249.859375 C 228.144531 250.539062 227.109375 251.195312 226.054688 251.828125 C 225.003906 252.457031 223.9375 253.0625 222.851562 253.640625 C 221.769531 254.21875 220.675781 254.773438 219.566406 255.296875 C 218.457031 255.820312 217.332031 256.320312 216.199219 256.789062 C 215.066406 257.257812 213.921875 257.699219 212.765625 258.113281 C 211.609375 258.527344 210.445312 258.910156 209.269531 259.269531 C 208.09375 259.625 206.914062 259.953125 205.722656 260.25 C 204.53125 260.546875 203.335938 260.816406 202.128906 261.058594 C 200.925781 261.296875 199.71875 261.507812 198.503906 261.6875 C 197.289062 261.867188 196.070312 262.015625 194.851562 262.136719 C 193.628906 262.257812 192.40625 262.347656 191.179688 262.40625 C 189.953125 262.46875 188.726562 262.496094 187.5 262.496094 C 186.269531 262.496094 185.042969 262.46875 183.820312 262.40625 C 182.59375 262.347656 181.371094 262.257812 180.148438 262.136719 C 178.925781 262.015625 177.707031 261.867188 176.496094 261.6875 C 175.28125 261.507812 174.070312 261.296875 172.867188 261.058594 C 171.664062 260.816406 170.464844 260.546875 169.277344 260.25 C 168.085938 259.953125 166.902344 259.625 165.726562 259.269531 C 164.554688 258.910156 163.386719 258.527344 162.234375 258.113281 C 161.078125 257.699219 159.933594 257.257812 158.796875 256.789062 C 157.664062 256.320312 156.542969 255.820312 155.433594 255.296875 C 154.324219 254.773438 153.226562 254.21875 152.144531 253.640625 C 151.0625 253.0625 149.996094 252.457031 148.941406 251.828125 C 147.890625 251.195312 146.851562 250.539062 145.832031 249.859375 C 144.8125 249.175781 143.808594 248.46875 142.820312 247.738281 C 141.835938 247.007812 140.867188 246.253906 139.921875 245.472656 C 138.972656 244.695312 138.042969 243.894531 137.132812 243.070312 C 136.222656 242.246094 135.335938 241.398438 134.464844 240.53125 C 133.597656 239.664062 132.753906 238.773438 131.929688 237.863281 C 131.105469 236.957031 130.300781 236.027344 129.523438 235.078125 C 128.746094 234.128906 127.992188 233.160156 127.257812 232.175781 C 126.527344 231.191406 125.820312 230.1875 125.140625 229.164062 C 124.457031 228.144531 123.800781 227.109375 123.171875 226.054688 C 122.539062 225.003906 121.933594 223.9375 121.355469 222.851562 C 120.777344 221.769531 120.226562 220.675781 119.699219 219.566406 C 119.175781 218.457031 118.679688 217.332031 118.207031 216.199219 C 117.738281 215.066406 117.296875 213.921875 116.882812 212.765625 C 116.46875 211.609375 116.085938 210.445312 115.730469 209.269531 C 115.375 208.09375 115.046875 206.914062 114.746094 205.722656 C 114.449219 204.53125 114.179688 203.335938 113.941406 202.128906 C 113.703125 200.925781 113.492188 199.71875 113.3125 198.503906 C 113.132812 197.289062 112.980469 196.070312 112.859375 194.851562 C 112.742188 193.628906 112.652344 192.40625 112.589844 191.179688 C 112.53125 189.953125 112.5 188.726562 112.5 187.5 C 112.5 186.269531 112.53125 185.042969 112.589844 183.820312 C 112.652344 182.59375 112.742188 181.371094 112.859375 180.148438 C 112.980469 178.925781 113.132812 177.707031 113.3125 176.496094 C 113.492188 175.28125 113.703125 174.070312 113.941406 172.867188 C 114.179688 171.664062 114.449219 170.464844 114.746094 169.277344 C 115.046875 168.085938 115.375 166.902344 115.730469 165.726562 C 116.085938 164.554688 116.46875 163.386719 116.882812 162.234375 C 117.296875 161.078125 117.738281 159.933594 118.207031 158.796875 C 118.679688 157.664062 119.175781 156.542969 119.699219 155.433594 C 120.226562 154.324219 120.777344 153.226562 121.355469 152.144531 C 121.933594 151.0625 122.539062 149.996094 123.171875 148.941406 C 123.800781 147.890625 124.457031 146.851562 125.140625 145.832031 C 125.820312 144.8125 126.527344 143.808594 127.257812 142.820312 C 127.992188 141.835938 128.746094 140.867188 129.523438 139.921875 C 130.300781 138.972656 131.105469 138.042969 131.929688 137.132812 C 132.753906 136.222656 133.597656 135.335938 134.464844 134.464844 C 135.335938 133.597656 136.222656 132.753906 137.132812 131.929688 C 138.042969 131.105469 138.972656 130.300781 139.921875 129.523438 C 140.867188 128.746094 141.835938 127.992188 142.820312 127.257812 C 143.808594 126.527344 144.8125 125.820312 145.832031 125.140625 C 146.851562 124.457031 147.890625 123.800781 148.941406 123.171875 C 149.996094 122.539062 151.0625 121.933594 152.144531 121.355469 C 153.226562 120.777344 154.324219 120.226562 155.433594 119.699219 C 156.542969 119.175781 157.664062 118.679688 158.796875 118.207031 C 159.933594 117.738281 161.078125 117.296875 162.234375 116.882812 C 163.386719 116.46875 164.554688 116.085938 165.726562 115.730469 C 166.902344 115.375 168.085938 115.046875 169.277344 114.746094 C 170.464844 114.449219 171.664062 114.179688 172.867188 113.941406 C 174.070312 113.703125 175.28125 113.492188 176.496094 113.3125 C 177.707031 113.132812 178.925781 112.980469 180.148438 112.859375 C 181.371094 112.742188 182.59375 112.652344 183.820312 112.589844 C 185.042969 112.53125 186.269531 112.5 187.5 112.5 C 188.726562 112.5 189.953125 112.53125 191.179688 112.589844 C 192.40625 112.652344 193.628906 112.742188 194.851562 112.859375 C 196.070312 112.980469 197.289062 113.132812 198.503906 113.3125 C 199.71875 113.492188 200.925781 113.703125 202.128906 113.941406 C 203.335938 114.179688 204.53125 114.449219 205.722656 114.746094 C 206.914062 115.046875 208.09375 115.375 209.269531 115.730469 C 210.445312 116.085938 211.609375 116.46875 212.765625 116.882812 C 213.921875 117.296875 215.066406 117.738281 216.199219 118.207031 C 217.332031 118.679688 218.457031 119.175781 219.566406 119.699219 C 220.675781 120.226562 221.769531 120.777344 222.851562 121.355469 C 223.9375 121.933594 225.003906 122.539062 226.054688 123.171875 C 227.109375 123.800781 228.144531 124.457031 229.164062 125.140625 C 230.1875 125.820312 231.191406 126.527344 232.175781 127.257812 C 233.160156 127.992188 234.128906 128.746094 235.078125 129.523438 C 236.027344 130.300781 236.957031 131.105469 237.863281 131.929688 C 238.773438 132.753906 239.664062 133.597656 240.53125 134.464844 C 241.398438 135.335938 242.246094 136.222656 243.070312 137.132812 C 243.894531 138.042969 244.695312 138.972656 245.472656 139.921875 C 246.253906 140.867188 247.007812 141.835938 247.738281 142.820312 C 248.46875 143.808594 249.175781 144.8125 249.859375 145.832031 C 250.539062 146.851562 251.195312 147.890625 251.828125 148.941406 C 252.457031 149.996094 253.0625 151.0625 253.640625 152.144531 C 254.21875 153.226562 254.773438 154.324219 255.296875 155.433594 C 255.820312 156.542969 256.320312 157.664062 256.789062 158.796875 C 257.257812 159.933594 257.699219 161.078125 258.113281 162.234375 C 258.527344 163.386719 258.910156 164.554688 259.269531 165.726562 C 259.625 166.902344 259.953125 168.085938 260.25 169.277344 C 260.546875 170.464844 260.816406 171.664062 261.058594 172.867188 C 261.296875 174.070312 261.507812 175.28125 261.6875 176.496094 C 261.867188 177.707031 262.015625 178.925781 262.136719 180.148438 C 262.257812 181.371094 262.347656 182.59375 262.40625 183.820312 C 262.46875 185.042969 262.496094 186.269531 262.496094 187.5 Z M 262.496094 187.5 " fill-opacity="1" fill-rule="nonzero"/></g><path fill="#000000" d="M 187.5 0 C 83.949219 0 0 83.949219 0 187.5 C 0 291.050781 83.949219 375 187.5 375 C 291.050781 375 375 291.050781 375 187.5 C 375 83.949219 291.050781 0 187.5 0 Z M 265.050781 279.949219 L 109.925781 279.949219 L 109.925781 95.050781 L 262.199219 95.050781 L 262.199219 130.601562 L 163.75 130.601562 L 163.75 165.773438 L 255.074219 165.773438 L 255.074219 199.5 L 163.75 199.5 L 163.75 241.949219 L 265.050781 241.949219 Z M 265.050781 279.949219 " fill-opacity="1" fill-rule="nonzero"/></svg>