<svg xmlns="http://www.w3.org/2000/svg" xmlns:xlink="http://www.w3.org/1999/xlink" width="500" zoomAndPan="magnify" viewBox="0 0 375 374.999991" height="500" preserveAspectRatio="xMidYMid meet" version="1.0"><defs><g/><clipPath id="1e35b9c331"><path d="M 0 62.5 L 375 62.5 L 375 312.25 L 0 312.25 Z M 0 62.5 " clip-rule="nonzero"/></clipPath><clipPath id="b5184f6d70"><path d="M 191.976562 108.640625 L 266.976562 108.640625 L 266.976562 183.640625 L 191.976562 183.640625 Z M 191.976562 108.640625 " clip-rule="nonzero"/></clipPath><clipPath id="476ef5ac69"><path d="M 203.226562 108.640625 L 255.726562 108.640625 C 258.707031 108.640625 261.570312 109.828125 263.679688 111.9375 C 265.789062 114.046875 266.976562 116.910156 266.976562 119.890625 L 266.976562 172.390625 C 266.976562 175.375 265.789062 178.238281 263.679688 180.347656 C 261.570312 182.457031 258.707031 183.640625 255.726562 183.640625 L 203.226562 183.640625 C 197.011719 183.640625 191.976562 178.605469 191.976562 172.390625 L 191.976562 119.890625 C 191.976562 113.679688 197.011719 108.640625 203.226562 108.640625 Z M 203.226562 108.640625 " clip-rule="nonzero"/></clipPath><clipPath id="0e828f3d28"><path d="M 108.023438 108.640625 L 183.023438 108.640625 L 183.023438 183.640625 L 108.023438 183.640625 Z M 108.023438 108.640625 " clip-rule="nonzero"/></clipPath><clipPath id="acfbe5b7ba"><path d="M 119.273438 108.640625 L 171.773438 108.640625 C 174.757812 108.640625 177.621094 109.828125 179.730469 111.9375 C 181.839844 114.046875 183.023438 116.910156 183.023438 119.890625 L 183.023438 172.390625 C 183.023438 175.375 181.839844 178.238281 179.730469 180.347656 C 177.621094 182.457031 174.757812 183.640625 171.773438 183.640625 L 119.273438 183.640625 C 113.0625 183.640625 108.023438 178.605469 108.023438 172.390625 L 108.023438 119.890625 C 108.023438 113.679688 113.0625 108.640625 119.273438 108.640625 Z M 119.273438 108.640625 " clip-rule="nonzero"/></clipPath><clipPath id="edb11e6728"><path d="M 108.023438 191.359375 L 183.023438 191.359375 L 183.023438 266.359375 L 108.023438 266.359375 Z M 108.023438 191.359375 " clip-rule="nonzero"/></clipPath><clipPath id="0e5b20dd69"><path d="M 119.273438 191.359375 L 171.773438 191.359375 C 174.757812 191.359375 177.621094 192.542969 179.730469 194.652344 C 181.839844 196.761719 183.023438 199.625 183.023438 202.609375 L 183.023438 255.109375 C 183.023438 258.089844 181.839844 260.953125 179.730469 263.0625 C 177.621094 265.171875 174.757812 266.359375 171.773438 266.359375 L 119.273438 266.359375 C 113.0625 266.359375 108.023438 261.320312 108.023438 255.109375 L 108.023438 202.609375 C 108.023438 196.394531 113.0625 191.359375 119.273438 191.359375 Z M 119.273438 191.359375 " clip-rule="nonzero"/></clipPath><clipPath id="28ffae72a0"><path d="M 191.976562 191.359375 L 266.976562 191.359375 L 266.976562 266.359375 L 191.976562 266.359375 Z M 191.976562 191.359375 " clip-rule="nonzero"/></clipPath><clipPath id="89dc9e83c2"><path d="M 203.226562 191.359375 L 255.726562 191.359375 C 258.707031 191.359375 261.570312 192.542969 263.679688 194.652344 C 265.789062 196.761719 266.976562 199.625 266.976562 202.609375 L 266.976562 255.109375 C 266.976562 258.089844 265.789062 260.953125 263.679688 263.0625 C 261.570312 265.171875 258.707031 266.359375 255.726562 266.359375 L 203.226562 266.359375 C 197.011719 266.359375 191.976562 261.320312 191.976562 255.109375 L 191.976562 202.609375 C 191.976562 196.394531 197.011719 191.359375 203.226562 191.359375 Z M 203.226562 191.359375 " clip-rule="nonzero"/></clipPath></defs><g clip-path="url(#1e35b9c331)"><path fill="#c1b199" d="M 0 62.5 L 375 62.5 L 375 312.25 L 0 312.25 Z M 0 62.5 " fill-opacity="1" fill-rule="nonzero"/></g><g clip-path="url(#b5184f6d70)"><g clip-path="url(#476ef5ac69)"><path fill="#f59663" d="M 191.976562 108.640625 L 266.976562 108.640625 L 266.976562 183.640625 L 191.976562 183.640625 Z M 191.976562 108.640625 " fill-opacity="1" fill-rule="nonzero"/></g></g><g fill="#ffffff" fill-opacity="1"><g transform="translate(214.59248, 162.641973)"><g><path d="M 14.875 0.4375 C 12.382812 0.4375 10.21875 -0.113281 8.375 -1.21875 C 6.539062 -2.320312 5.113281 -4.039062 4.09375 -6.375 C 3.070312 -8.707031 2.5625 -11.65625 2.5625 -15.21875 C 2.5625 -18.789062 3.070312 -21.742188 4.09375 -24.078125 C 5.113281 -26.410156 6.539062 -28.128906 8.375 -29.234375 C 10.21875 -30.335938 12.382812 -30.890625 14.875 -30.890625 C 17.375 -30.890625 19.539062 -30.335938 21.375 -29.234375 C 23.21875 -28.128906 24.648438 -26.410156 25.671875 -24.078125 C 26.691406 -21.742188 27.203125 -18.789062 27.203125 -15.21875 C 27.203125 -11.65625 26.691406 -8.707031 25.671875 -6.375 C 24.648438 -4.039062 23.21875 -2.320312 21.375 -1.21875 C 19.539062 -0.113281 17.375 0.4375 14.875 0.4375 Z M 14.875 -4.671875 C 16.226562 -4.671875 17.363281 -5 18.28125 -5.65625 C 19.195312 -6.3125 19.898438 -7.414062 20.390625 -8.96875 C 20.890625 -10.53125 21.140625 -12.613281 21.140625 -15.21875 C 21.140625 -17.832031 20.890625 -19.914062 20.390625 -21.46875 C 19.898438 -23.03125 19.195312 -24.140625 18.28125 -24.796875 C 17.363281 -25.453125 16.226562 -25.78125 14.875 -25.78125 C 13.507812 -25.78125 12.367188 -25.453125 11.453125 -24.796875 C 10.535156 -24.140625 9.832031 -23.03125 9.34375 -21.46875 C 8.851562 -19.914062 8.609375 -17.832031 8.609375 -15.21875 C 8.609375 -12.613281 8.851562 -10.53125 9.34375 -8.96875 C 9.832031 -7.414062 10.535156 -6.3125 11.453125 -5.65625 C 12.367188 -5 13.507812 -4.671875 14.875 -4.671875 Z M 14.875 -4.671875 "/></g></g></g><g clip-path="url(#0e828f3d28)"><g clip-path="url(#acfbe5b7ba)"><path fill="#ede0c9" d="M 108.023438 108.640625 L 183.023438 108.640625 L 183.023438 183.640625 L 108.023438 183.640625 Z M 108.023438 108.640625 " fill-opacity="1" fill-rule="nonzero"/></g></g><g fill="#797066" fill-opacity="1"><g transform="translate(133.641882, 162.641973)"><g><path d="M 1.484375 -2.421875 C 1.484375 -4.097656 1.664062 -5.507812 2.03125 -6.65625 C 2.394531 -7.8125 2.992188 -8.863281 3.828125 -9.8125 C 4.660156 -10.769531 5.84375 -11.796875 7.375 -12.890625 L 11.4375 -15.828125 C 12.539062 -16.617188 13.398438 -17.304688 14.015625 -17.890625 C 14.640625 -18.472656 15.109375 -19.082031 15.421875 -19.71875 C 15.734375 -20.363281 15.890625 -21.09375 15.890625 -21.90625 C 15.890625 -23.144531 15.515625 -24.097656 14.765625 -24.765625 C 14.015625 -25.441406 12.890625 -25.78125 11.390625 -25.78125 C 9.953125 -25.78125 8.671875 -25.4375 7.546875 -24.75 C 6.421875 -24.0625 5.488281 -23.125 4.75 -21.9375 L 4.359375 -21.828125 L 1.046875 -25.53125 C 2.128906 -27.144531 3.539062 -28.441406 5.28125 -29.421875 C 7.019531 -30.398438 9.132812 -30.890625 11.625 -30.890625 C 13.894531 -30.890625 15.796875 -30.515625 17.328125 -29.765625 C 18.867188 -29.015625 20.007812 -27.988281 20.75 -26.6875 C 21.5 -25.394531 21.875 -23.90625 21.875 -22.21875 C 21.875 -20.78125 21.570312 -19.460938 20.96875 -18.265625 C 20.363281 -17.066406 19.523438 -15.960938 18.453125 -14.953125 C 17.378906 -13.941406 16.007812 -12.851562 14.34375 -11.6875 L 10.75 -9.171875 C 9.664062 -8.390625 8.90625 -7.695312 8.46875 -7.09375 C 8.039062 -6.488281 7.828125 -5.804688 7.828125 -5.046875 L 21.578125 -5.046875 L 21.578125 0 L 1.484375 0 Z M 1.484375 -2.421875 "/></g></g></g><g clip-path="url(#edb11e6728)"><g clip-path="url(#0e5b20dd69)"><path fill="#f67c5f" d="M 108.023438 191.359375 L 183.023438 191.359375 L 183.023438 266.359375 L 108.023438 266.359375 Z M 108.023438 191.359375 " fill-opacity="1" fill-rule="nonzero"/></g></g><g fill="#ffffff" fill-opacity="1"><g transform="translate(132.24735, 245.358001)"><g><path d="M 20.6875 0 L 14.90625 0 L 14.90625 -6.625 L 1.046875 -6.625 L 1.046875 -11.46875 L 12.96875 -30.453125 L 20.6875 -30.453125 L 20.6875 -11.46875 L 25.375 -11.46875 L 25.375 -6.625 L 20.6875 -6.625 Z M 7.203125 -11.90625 L 7.390625 -11.46875 L 14.90625 -11.46875 L 14.90625 -23.265625 L 14.4375 -23.34375 Z M 7.203125 -11.90625 "/></g></g></g><g clip-path="url(#28ffae72a0)"><g clip-path="url(#89dc9e83c2)"><path fill="#f2b178" d="M 191.976562 191.359375 L 266.976562 191.359375 L 266.976562 266.359375 L 191.976562 266.359375 Z M 191.976562 191.359375 " fill-opacity="1" fill-rule="nonzero"/></g></g><g fill="#ffffff" fill-opacity="1"><g transform="translate(216.408886, 245.358001)"><g><path d="M 13.0625 0.4375 C 10.644531 0.4375 8.597656 0.0625 6.921875 -0.6875 C 5.253906 -1.4375 3.992188 -2.503906 3.140625 -3.890625 C 2.296875 -5.285156 1.875 -6.929688 1.875 -8.828125 C 1.875 -10.585938 2.3125 -12.113281 3.1875 -13.40625 C 4.0625 -14.695312 5.335938 -15.710938 7.015625 -16.453125 L 7.015625 -16.890625 C 5.828125 -17.628906 4.914062 -18.503906 4.28125 -19.515625 C 3.644531 -20.523438 3.328125 -21.710938 3.328125 -23.078125 C 3.328125 -24.617188 3.707031 -25.976562 4.46875 -27.15625 C 5.226562 -28.34375 6.335938 -29.257812 7.796875 -29.90625 C 9.265625 -30.5625 11.019531 -30.890625 13.0625 -30.890625 C 15.101562 -30.890625 16.851562 -30.5625 18.3125 -29.90625 C 19.769531 -29.257812 20.878906 -28.34375 21.640625 -27.15625 C 22.398438 -25.976562 22.78125 -24.617188 22.78125 -23.078125 C 22.78125 -21.710938 22.460938 -20.523438 21.828125 -19.515625 C 21.191406 -18.515625 20.269531 -17.640625 19.0625 -16.890625 L 19.0625 -16.453125 C 20.832031 -15.742188 22.132812 -14.734375 22.96875 -13.421875 C 23.800781 -12.117188 24.21875 -10.585938 24.21875 -8.828125 C 24.21875 -6.929688 23.796875 -5.285156 22.953125 -3.890625 C 22.109375 -2.503906 20.851562 -1.4375 19.1875 -0.6875 C 17.519531 0.0625 15.476562 0.4375 13.0625 0.4375 Z M 13.0625 -18.59375 C 14.269531 -18.59375 15.226562 -18.925781 15.9375 -19.59375 C 16.65625 -20.257812 17.015625 -21.1875 17.015625 -22.375 C 17.015625 -23.5625 16.65625 -24.492188 15.9375 -25.171875 C 15.226562 -25.859375 14.269531 -26.203125 13.0625 -26.203125 C 11.820312 -26.203125 10.847656 -25.863281 10.140625 -25.1875 C 9.429688 -24.519531 9.078125 -23.582031 9.078125 -22.375 C 9.078125 -21.175781 9.429688 -20.242188 10.140625 -19.578125 C 10.847656 -18.921875 11.820312 -18.59375 13.0625 -18.59375 Z M 13.0625 -4.6875 C 14.6875 -4.6875 15.941406 -5.09375 16.828125 -5.90625 C 17.710938 -6.71875 18.15625 -7.847656 18.15625 -9.296875 C 18.15625 -10.734375 17.710938 -11.859375 16.828125 -12.671875 C 15.941406 -13.484375 14.6875 -13.890625 13.0625 -13.890625 C 11.425781 -13.890625 10.160156 -13.484375 9.265625 -12.671875 C 8.378906 -11.859375 7.9375 -10.734375 7.9375 -9.296875 C 7.9375 -7.847656 8.378906 -6.71875 9.265625 -5.90625 C 10.160156 -5.09375 11.425781 -4.6875 13.0625 -4.6875 Z M 13.0625 -4.6875 "/></g></g></g></svg>