<svg xmlns="http://www.w3.org/2000/svg" xmlns:xlink="http://www.w3.org/1999/xlink" width="500" zoomAndPan="magnify" viewBox="0 0 375 374.999991" height="500" preserveAspectRatio="xMidYMid meet" version="1.0"><defs><clipPath id="e64b94562e"><path d="M 131.25 131.25 L 243.75 131.25 L 243.75 243.75 L 131.25 243.75 Z M 131.25 131.25 " clip-rule="nonzero"/></clipPath><clipPath id="851f103812"><path d="M 128.90625 112.5 L 245.90625 112.5 L 245.90625 262.5 L 128.90625 262.5 Z M 128.90625 112.5 " clip-rule="nonzero"/></clipPath></defs><rect x="-37.5" width="450" fill="#ffffff" y="-37.499999" height="449.999989" fill-opacity="1"/><rect x="-37.5" width="450" fill="#004aad" y="-37.499999" height="449.999989" fill-opacity="1"/><g clip-path="url(#e64b94562e)"><path fill="#004aad" d="M 131.25 131.25 L 243.75 131.25 L 243.75 243.75 L 131.25 243.75 Z M 131.25 131.25 " fill-opacity="1" fill-rule="nonzero"/></g><g clip-path="url(#851f103812)"><path fill="#ffffff" d="M 241.617188 219.382812 C 244.019531 219.382812 246.015625 217.386719 246.015625 214.984375 L 246.015625 116.898438 C 246.015625 114.496094 244.019531 112.5 241.617188 112.5 L 156.730469 112.5 C 141.65625 112.5 129.453125 124.761719 129.453125 139.777344 L 129.453125 227.183594 C 129.160156 228.652344 128.984375 230.117188 128.984375 231.644531 C 128.984375 243.257812 138.429688 252.703125 150.042969 252.703125 L 153.914062 252.703125 L 153.914062 258.980469 C 153.914062 260.328125 154.738281 261.503906 155.910156 261.972656 C 157.140625 262.5 158.550781 262.207031 159.488281 261.269531 L 168.054688 252.703125 L 169.34375 252.703125 L 178.144531 261.503906 C 178.789062 262.148438 179.609375 262.441406 180.429688 262.441406 C 180.839844 262.441406 181.253906 262.382812 181.664062 262.207031 C 182.894531 261.679688 183.65625 260.503906 183.65625 259.214844 L 183.65625 252.761719 L 241.617188 252.761719 C 244.019531 252.761719 246.015625 250.765625 246.015625 248.363281 C 246.015625 245.957031 244.019531 243.960938 241.617188 243.960938 L 229.765625 243.960938 L 229.765625 219.441406 L 241.617188 219.441406 Z M 220.96875 243.902344 L 183.65625 243.902344 L 183.65625 232.875 C 183.65625 231.058594 182.191406 229.589844 180.371094 229.589844 L 157.082031 229.589844 C 155.265625 229.589844 153.796875 231.058594 153.796875 232.875 L 153.796875 243.902344 L 149.925781 243.902344 C 143.179688 243.902344 137.667969 238.390625 137.667969 231.644531 C 137.667969 230.46875 137.84375 229.355469 138.136719 228.300781 C 138.195312 228.183594 138.195312 228.007812 138.253906 227.890625 C 138.371094 227.597656 138.488281 227.300781 138.605469 226.949219 C 138.605469 226.890625 138.605469 226.890625 138.664062 226.832031 C 139.894531 223.898438 142.242188 221.554688 145.175781 220.320312 C 145.175781 220.320312 145.175781 220.320312 145.234375 220.320312 C 145.585938 220.203125 145.878906 220.085938 146.230469 219.96875 C 146.289062 219.96875 146.40625 219.910156 146.464844 219.910156 C 146.757812 219.851562 146.992188 219.734375 147.285156 219.675781 C 147.402344 219.675781 147.523438 219.617188 147.640625 219.617188 C 147.933594 219.558594 148.167969 219.5 148.460938 219.5 C 148.578125 219.5 148.695312 219.441406 148.8125 219.441406 C 149.222656 219.382812 149.574219 219.382812 149.984375 219.382812 L 220.96875 219.382812 Z M 220.96875 243.902344 " fill-opacity="1" fill-rule="nonzero"/></g></svg>